<svg xmlns="http://www.w3.org/2000/svg" viewBox="0 0 512 512">
  <rect width="512" height="512" rx="96" fill="#126155"/>
  <path fill="#f4b642" d="M128 120h256a32 32 0 0 1 32 32v208a32 32 0 0 1-32 32H128a32 32 0 0 1-32-32V152a32 32 0 0 1 32-32Z"/>
  <path fill="#fff" d="M152 176h208v34H152v-34Zm0 76h208v34H152v-34Zm0 76h136v34H152v-34Z"/>
  <path fill="#126155" d="M338 318c0-25 20-45 45-45s45 20 45 45-20 45-45 45-45-20-45-45Zm58-14h-26v14h26v14h-26v16h-18v-16h-15v-14h15v-14h-15v-14h12l-18-31h20l17 32 17-32h20l-18 31h9v14Z"/>
</svg>
